<svg width="46" height="28" viewBox="0 0 46 28" fill="none" xmlns="http://www.w3.org/2000/svg">
<path d="M7.79637 11.6193L0 17.4109V24.0875C0 25.356 1.44527 26.0827 2.4635 25.3263L21.8191 10.9479C22.3655 10.542 23.1133 10.542 23.6597 10.9479L43.0153 25.3263C44.0336 26.0827 45.4788 25.356 45.4788 24.0875V18.187C45.4788 17.6987 45.2478 17.2393 44.8559 16.9481L23.6597 1.2024C23.1133 0.796518 22.3655 0.796518 21.8191 1.2024L7.79637 11.6193Z" fill="#002B6D"/>
<path d="M-4.14452e-06 2.14847C-4.14452e-06 1.29617 0.690924 0.605243 1.54323 0.605243H7.02475C7.4509 0.605243 7.79637 0.950707 7.79637 1.37686V5.51957C7.79637 6.98428 7.10325 8.3626 5.92747 9.23604L-4.14452e-06 13.6393V2.14847Z" fill="#002B6D"/>
</svg>
